<?xml version="1.0" encoding="UTF-8"?>
<svg version="1.1" xmlns="http://www.w3.org/2000/svg" width="512" height="512">
<path d="M0 0 C1.185417 -0.00384115 2.37083401 -0.00768229 3.59217274 -0.01163983 C4.88554173 -0.01077335 6.17891072 -0.00990687 7.5114727 -0.00901413 C8.90640688 -0.01159956 10.30134031 -0.01461322 11.69627273 -0.01801753 C15.52468653 -0.02606991 19.35308156 -0.02787612 23.18150282 -0.028615 C27.31254992 -0.03046863 31.44358734 -0.03801755 35.57462883 -0.04475021 C44.60578163 -0.0583217 53.63692999 -0.06435645 62.6680913 -0.06876087 C68.30961037 -0.07152539 73.95112773 -0.07576313 79.59264565 -0.08026505 C95.21920285 -0.09245634 110.8457587 -0.10275582 126.47232056 -0.10614014 C127.4721113 -0.1063597 128.47190204 -0.10657927 129.50198948 -0.10680549 C130.50414273 -0.10702377 131.50629599 -0.10724204 132.53881752 -0.10746694 C134.56948733 -0.1079104 136.60015714 -0.10835696 138.63082695 -0.10880661 C140.14174346 -0.10913875 140.14174346 -0.10913875 141.68318354 -0.10947761 C157.99946199 -0.11342442 174.31569575 -0.13087553 190.63195695 -0.15416613 C207.39255055 -0.17789743 224.15312174 -0.1903428 240.91373241 -0.19150805 C250.32056543 -0.19242383 259.72734023 -0.19815162 269.13415718 -0.21632767 C277.14531486 -0.23175268 285.15639631 -0.23683498 293.16756602 -0.22858956 C297.25208925 -0.22469151 301.33645908 -0.22557118 305.42096329 -0.23964691 C309.16669714 -0.25243669 312.91216311 -0.25114419 316.65789686 -0.2390562 C318.64102706 -0.2361913 320.62416211 -0.24799639 322.6072551 -0.26047826 C336.91158864 -0.18199504 348.54044631 2.99932653 359.25094414 12.75642776 C364.46082539 18.24162794 369.00094414 25.45634363 369.00094414 33.13142776 C380.22094414 33.13142776 391.44094414 33.13142776 403.00094414 33.13142776 C403.00094414 41.38142776 403.00094414 49.63142776 403.00094414 58.13142776 C405.08793633 58.08502151 407.17492851 58.03861526 409.32516289 57.99080276 C411.39390455 57.95942094 413.46261759 57.93524022 415.53146172 57.9117012 C416.94630014 57.89184382 418.36105944 57.8647481 419.77560234 57.82966995 C434.54871693 57.47305945 446.72739287 59.98894003 458.00094414 70.13142776 C464.68159345 77.1878636 469.11194963 86.35938734 469.13795853 96.13475418 C469.14303307 97.1489861 469.14810761 98.16321802 469.15333593 99.20818424 C469.15408256 100.87682797 469.15408256 100.87682797 469.15484428 102.57918167 C469.15922654 103.76244632 469.16360879 104.94571096 469.16812384 106.16483212 C469.17918134 109.45048949 469.18573409 112.73612 469.19030499 116.0217917 C469.19626727 119.56527939 469.20787565 123.10874961 469.2185955 126.65222549 C469.24310684 135.21130656 469.25774564 143.77039341 469.27065557 152.32949877 C469.2743687 154.7480018 469.27834184 157.16650425 469.28240824 159.58500671 C469.30764809 174.61108961 469.32969615 189.63717344 469.34213638 204.66327286 C469.34506597 208.143055 469.34802765 211.6228371 469.35104179 215.10261917 C469.35178784 215.96747834 469.3525339 216.83233751 469.35330255 217.72340453 C469.36594859 231.72483522 469.39916213 245.72613871 469.44084363 259.72750998 C469.48330922 274.11049323 469.50683683 288.49341145 469.51205695 302.87645721 C469.51546603 310.94869652 469.52716155 319.0207371 469.56015968 327.09291458 C469.58822515 333.9696297 469.59913122 340.84610534 469.58796422 347.72287327 C469.58279387 351.22829039 469.58555699 354.73320656 469.61042976 358.23855019 C469.633158 362.04871616 469.62480698 365.85763129 469.60894585 369.66780472 C469.62282793 370.7623881 469.63671002 371.85697147 469.65101278 372.98472404 C469.53169323 384.66724579 465.06551696 394.69799715 457.00094414 403.13142776 C448.77478141 410.65104891 439.5621225 414.26649801 428.46652031 414.24495316 C427.16554909 414.24487762 425.86457787 414.24480209 424.52418327 414.24472427 C423.11409275 414.23961839 421.70400262 414.23440241 420.29391289 414.22908401 C418.8437435 414.22721756 417.39357349 414.22579473 415.94340324 414.2247963 C412.13761448 414.22098906 408.33186423 414.21117419 404.52609062 414.20009232 C400.63815647 414.18983954 396.75021606 414.1852904 392.86227226 414.18025589 C385.24181001 414.16955022 377.62138739 414.15196804 370.00094414 414.13142776 C370.00094414 419.74142776 370.00094414 425.35142776 370.00094414 431.13142776 C353.50094414 431.13142776 337.00094414 431.13142776 320.00094414 431.13142776 C318.51594414 436.08142776 318.51594414 436.08142776 317.00094414 441.13142776 C311.85743876 450.76336944 303.55267342 458.4222545 293.18844414 462.06892776 C287.76898932 463.65178594 282.41006015 464.25656565 276.7746563 464.25168228 C275.54635597 464.25305695 274.31805565 464.25443161 273.0525341 464.25584793 C271.70477079 464.25230953 270.35700773 464.24867473 269.00924492 464.24495316 C267.57980667 464.24467086 266.15036827 464.24482984 264.7209301 464.24539566 C260.85156131 464.245682 256.98222367 464.23981169 253.11286211 464.2328217 C249.06496814 464.22656095 245.01707341 464.22598221 240.96917534 464.2247963 C233.30889456 464.221691 225.64862809 464.21348843 217.98835361 464.20344681 C209.26528688 464.19226076 200.54221946 464.18676894 191.81914735 464.18175137 C173.87973795 464.17130514 155.94034272 464.15351926 138.00094414 464.13142776 C138.00094414 458.52142776 138.00094414 452.91142776 138.00094414 447.13142776 C121.83094414 447.13142776 105.66094414 447.13142776 89.00094414 447.13142776 C89.00094414 419.74142776 89.00094414 392.35142776 89.00094414 364.13142776 C105.17094414 364.13142776 121.34094414 364.13142776 138.00094414 364.13142776 C138.00094414 358.52142776 138.00094414 352.91142776 138.00094414 347.13142776 C156.94280599 347.03861342 175.88460307 346.96733787 194.82664585 346.92417908 C203.62286141 346.90360214 212.4189326 346.8755753 221.21505547 346.82966995 C228.88668779 346.78965239 236.55821549 346.76395961 244.2299493 346.75507379 C248.28764897 346.74988414 252.34504948 346.73778973 256.40265274 346.70850754 C260.23172253 346.68110177 264.06037353 346.67303276 267.88953209 346.67899704 C269.28540711 346.67790792 270.681298 346.67010491 272.0770874 346.65460587 C286.76855185 346.49964609 298.87497222 349.60849364 309.77438164 359.78767776 C315.13233642 365.55359865 318.46758721 372.46464314 320.00094414 380.13142776 C336.50094414 380.13142776 353.00094414 380.13142776 370.00094414 380.13142776 C370.00094414 385.74142776 370.00094414 391.35142776 370.00094414 397.13142776 C377.66875841 397.0682708 385.33626215 396.99265948 393.00372028 396.89571285 C396.56486454 396.85117156 400.12589867 396.81188098 403.68722343 396.78499222 C407.79078083 396.75377121 411.89374113 396.69898999 415.99703789 396.64314651 C417.26301308 396.63675659 418.52898827 396.63036667 419.83332634 396.62378311 C429.35332755 396.46682338 437.42564648 395.29736772 445.00094414 389.13142776 C450.84914425 381.65872762 451.29567912 374.91459878 451.2750988 365.77138138 C451.28033548 364.62174872 451.28557216 363.47211607 451.29096752 362.28764606 C451.30335889 359.1052253 451.30681148 355.92294165 451.30637062 352.7405014 C451.30802188 349.30478024 451.32109413 345.86909902 451.3325634 342.4333992 C451.35538821 334.92505861 451.36333122 327.41674632 451.36838984 319.90837574 C451.37164965 315.21765409 451.37817382 310.52694062 451.38539124 305.8362236 C451.4049535 292.84150457 451.42136002 279.84679312 451.42426777 266.85205841 C451.42454912 265.60534837 451.42454912 265.60534837 451.42483616 264.33345227 C451.42520241 262.64863189 451.4255661 260.96381151 451.42592727 259.27899113 C451.42611009 258.44267803 451.4262929 257.60636494 451.42648125 256.74470901 C451.4266618 255.90737176 451.42684235 255.07003451 451.42702837 254.2073234 C451.43056961 240.6411502 451.45759048 227.07513577 451.49497914 213.50901762 C451.53308394 199.57119793 451.5524254 185.63345698 451.55272728 171.69558406 C451.55331134 163.87383895 451.5617704 156.05228328 451.59072495 148.23058701 C451.61526792 141.57014324 451.62250216 134.90995802 451.60747742 128.24948123 C451.60032014 124.85354916 451.60384797 121.45854173 451.62388802 118.06259918 C451.64432339 114.37442501 451.6338091 110.68756637 451.61567497 106.99940872 C451.63547492 105.40336929 451.63547492 105.40336929 451.65567487 103.77508664 C451.56695337 95.85715449 449.69894699 89.09816347 444.18693918 83.18559957 C438.83678995 78.25376356 434.00141985 76.89687161 426.73141289 76.71736526 C426.05041023 76.69799911 425.36940758 76.67863297 424.66776848 76.65867996 C422.50811821 76.59924645 420.34841357 76.55264577 418.18844414 76.50642776 C416.7177187 76.46821449 415.24701485 76.42916083 413.77633476 76.38924026 C410.18465482 76.29200358 406.59318447 76.21215227 403.00094414 76.13142776 C403.00094414 84.05142776 403.00094414 91.97142776 403.00094414 100.13142776 C392.11094414 100.13142776 381.22094414 100.13142776 370.00094414 100.13142776 C370.00982658 102.3871109 370.01870903 104.64279404 370.02786064 106.96683121 C370.10966295 128.22820495 370.16915682 149.4895579 370.20819283 170.75105381 C370.22879593 181.68170075 370.2568735 192.61223203 370.30270195 203.54280472 C370.34263863 213.07268945 370.36839331 222.60249039 370.37729812 232.13245648 C370.38250129 237.1759896 370.39468368 242.21928306 370.42386436 247.26273918 C370.45114143 252.01597502 370.45936439 256.76887388 370.45337486 261.52218056 C370.45446962 263.26075322 370.46234998 264.9993379 370.47776604 266.73784256 C370.57966428 278.82862488 369.62897191 289.19187642 362.00094414 299.13142776 C361.32031914 300.10080276 360.63969414 301.07017776 359.93844414 302.06892776 C352.85092174 310.30519232 342.37540454 314.50054968 331.74362385 315.41008842 C328.05916653 315.51912503 324.38536932 315.53617167 320.69932365 315.51910782 C319.27944677 315.52328834 317.85957322 315.52876977 316.43970579 315.53542763 C312.56551707 315.54980673 308.69154246 315.54566132 304.8173424 315.53826082 C300.62842636 315.5335127 296.43955556 315.54605343 292.25065422 315.55627823 C284.05517158 315.57343906 275.85976569 315.57431194 267.66426975 315.56906532 C261.00082073 315.56501757 254.33739433 315.56647436 247.67394638 315.57181358 C246.72417718 315.57256201 245.77440798 315.57331043 244.79585789 315.57408153 C242.86617553 315.57561306 240.93649318 315.57715141 239.00681084 315.5786965 C220.92737007 315.59241154 202.84797263 315.5869907 184.76853286 315.57551128 C168.24238775 315.56557843 151.71635459 315.57852225 135.19022674 315.60244548 C118.2034625 315.62684948 101.21675038 315.63644124 84.22996897 315.62979275 C74.70024098 315.62630362 65.17059909 315.62851246 55.6408844 315.64604378 C47.52917552 315.66078195 39.41761337 315.66138001 31.30590732 315.64397287 C27.17068321 315.63547408 23.03572107 315.63328575 18.90051079 315.64862442 C15.10863418 315.66251501 11.31724287 315.65765293 7.52539402 315.63838518 C5.51765123 315.632875 3.50988347 315.64686005 1.50218827 315.66173929 C-11.95680637 315.55305835 -23.41395935 311.83504141 -32.99905586 302.10017776 C-44.13095097 288.85706117 -43.71816688 275.46665155 -43.63015938 258.99446487 C-43.63530307 256.54751442 -43.64258773 254.10056767 -43.65184212 251.6536293 C-43.66839224 245.7198275 -43.66176172 239.78632763 -43.64375389 233.85255545 C-43.62967931 229.02692098 -43.62584547 224.20137591 -43.62919617 219.37572289 C-43.62967361 218.68668441 -43.63015105 217.99764593 -43.63064296 217.28772749 C-43.63166938 215.88759893 -43.63272474 214.48747038 -43.63380872 213.08734185 C-43.64235912 200.73112163 -43.62575429 188.37506045 -43.59597969 176.01887894 C-43.56714002 164.05038652 -43.56006385 152.08212314 -43.57547188 140.1136055 C-43.592261 127.05456711 -43.59624117 113.99563724 -43.57876152 100.93659598 C-43.57691728 99.54216962 -43.57508256 98.14774326 -43.57325745 96.75331688 C-43.57234536 96.067377 -43.57143327 95.38143712 -43.57049354 94.67471118 C-43.56490544 89.85867404 -43.56817907 85.04269018 -43.5748024 80.22665596 C-43.58337447 73.73648645 -43.57028449 67.24657157 -43.54295349 60.75645256 C-43.53608628 58.37932561 -43.53595374 56.00216788 -43.54316902 53.62504196 C-43.55190514 50.37114685 -43.53583641 47.11825622 -43.51371956 43.86444473 C-43.52196033 42.93193435 -43.53020109 41.99942397 -43.53869158 41.0386557 C-43.39285131 29.35117046 -38.8978664 20.4172378 -31.03421211 12.03767776 C-22.37008462 3.63989777 -11.96273466 0.01460456 0 0 Z M-19.87405586 25.88142776 C-20.40772774 26.49502151 -20.94139961 27.10861526 -21.49124336 27.74080276 C-26.35706126 35.45551923 -26.4174028 42.53747747 -26.33963203 51.43220901 C-26.34007011 52.75010925 -26.34050819 54.06800949 -26.34095955 55.4258461 C-26.34181601 59.01835773 -26.32424743 62.6105654 -26.30323768 66.20300674 C-26.28441219 69.96526399 -26.28271583 73.72752913 -26.27916145 77.4898262 C-26.26985816 84.6046944 -26.24526779 91.71942337 -26.21511298 98.83423042 C-26.18151536 106.93823239 -26.16506952 115.04224121 -26.15002668 123.14629555 C-26.11871656 139.80808762 -26.0659897 156.46973989 -25.99905586 173.13142776 C-25.01679024 172.6248262 -25.01679024 172.6248262 -24.01468086 172.10799026 C-23.10202461 171.66197464 -22.18936836 171.21595901 -21.24905586 170.75642776 C-20.36733711 170.31556839 -19.48561836 169.87470901 -18.57718086 169.42049026 C-8.98624593 165.96524078 0.91749039 165.84152902 11.0052166 165.87746048 C12.38058114 165.8751508 13.75594445 165.8719709 15.13130522 165.86800599 C18.87778393 165.85971894 22.6241597 165.86375528 26.37063861 165.86997843 C30.42387165 165.87452706 34.47708771 165.86750726 38.53031731 165.86201859 C46.4576136 165.85314856 54.38487192 165.85503591 62.31216967 165.86084387 C68.75772196 165.86536978 75.20326364 165.86596924 81.64881706 165.86379623 C83.02747417 165.86333654 83.02747417 165.86333654 84.43398294 165.86286755 C86.30141676 165.86222807 88.16885057 165.86157964 90.03628439 165.86092237 C107.52676008 165.85522608 125.01721478 165.86176595 142.50768703 165.8725231 C157.49910226 165.88145797 172.4904865 165.87990573 187.48190117 165.87068558 C204.91192335 165.85997055 222.34192714 165.85577533 239.77195215 165.8619101 C241.63232517 165.86254717 243.49269819 165.86317591 245.35307121 165.86379623 C246.26829153 165.86410479 247.18351186 165.86441334 248.12646613 165.86473124 C254.56055669 165.86645448 260.99463554 165.86355108 267.42872429 165.85883713 C275.27503986 165.8532146 283.12131544 165.85477354 290.96762645 165.86539862 C294.9670951 165.87063688 298.96649719 165.87274369 302.96596527 165.86610031 C306.633699 165.86010033 310.30130504 165.86348205 313.96902734 165.87405542 C315.91010721 165.87731511 317.85119608 165.87085485 319.79226637 165.86394095 C329.55648925 165.9072277 339.36921412 166.31556275 348.25094414 170.75642776 C349.61992851 171.4254512 349.61992851 171.4254512 351.01656914 172.10799026 C351.67141289 172.44572464 352.32625664 172.78345901 353.00094414 173.13142776 C353.09455027 155.70235916 353.16500284 138.27336946 353.20819283 120.84410667 C353.22878327 112.75066708 353.25683618 104.65738404 353.30270195 96.56404495 C353.34267792 89.50661607 353.3684025 82.44930062 353.37729812 75.39176166 C353.38249477 71.65775749 353.39463434 67.92407771 353.42386436 64.19017792 C353.45629619 60.0130613 353.45689669 55.83650205 353.4550457 51.6592598 C353.47661736 49.81966438 353.47661736 49.81966438 353.4986248 47.94290543 C353.45902217 39.66279995 352.35362839 32.38276965 347.10641289 25.72908401 C346.15701836 24.96918167 346.15701836 24.96918167 345.18844414 24.19392776 C344.56324883 23.66927933 343.93805351 23.14463089 343.29391289 22.60408401 C335.66021349 17.70135033 329.21107701 17.70243985 320.27404594 17.74374771 C318.86785754 17.73957217 317.46167251 17.73409345 316.05549371 17.7274279 C312.20068061 17.71298322 308.34608149 17.71721491 304.49125671 17.72459471 C300.33027582 17.72932654 296.16934121 17.71681637 292.00837517 17.7065773 C283.86014096 17.68938399 275.71198385 17.68855043 267.56373622 17.6937902 C260.94021146 17.69783231 254.31670948 17.69638787 247.69318581 17.69104195 C246.75033456 17.69029352 245.80748331 17.6895451 244.83606081 17.688774 C242.92062613 17.68724252 241.00519145 17.68570417 239.08975677 17.68415903 C221.12821708 17.67043195 203.16672094 17.67587304 185.20518224 17.68734425 C168.77698703 17.69727586 152.34890445 17.68433756 135.92072661 17.66041005 C119.04823466 17.63602076 102.17579518 17.62641083 85.30328596 17.63306278 C75.83227982 17.6365555 66.36136031 17.63431947 56.89036751 17.61681175 C48.82751662 17.60209186 40.76481334 17.6014515 32.70196535 17.61888266 C28.58941813 17.62739699 24.47713462 17.62953179 20.36460114 17.61423111 C16.59677576 17.60038665 12.82944008 17.60514366 9.06164305 17.62447035 C7.05944568 17.63000761 5.0572234 17.61595674 3.05507338 17.60111624 C-5.72334915 17.67282515 -13.94883084 18.74757475 -19.87405586 25.88142776 Z M370.00094414 51.13142776 C370.00094414 61.69142776 370.00094414 72.25142776 370.00094414 83.13142776 C375.28094414 83.13142776 380.56094414 83.13142776 386.00094414 83.13142776 C386.00094414 72.57142776 386.00094414 62.01142776 386.00094414 51.13142776 C380.72094414 51.13142776 375.44094414 51.13142776 370.00094414 51.13142776 Z M-21.74514961 192.99470901 C-26.83615545 201.67003673 -26.4563112 210.26457309 -26.43264961 220.00252151 C-26.43721767 221.65104766 -26.4425251 223.2995719 -26.44853401 224.94809341 C-26.45743945 228.39347981 -26.4550714 231.8386341 -26.44510078 235.28401566 C-26.43361378 239.67977535 -26.45383112 244.07473136 -26.48301792 248.47038555 C-26.50144233 251.87210478 -26.50107512 255.2736336 -26.4953804 258.67539024 C-26.49522795 260.29516668 -26.50120864 261.91495664 -26.51367188 263.53468513 C-26.57982665 273.5402676 -26.34272881 281.82249416 -19.74905586 289.88142776 C-12.38163847 295.90931472 -6.73696316 298.2508747 2.9118824 298.26285553 C4.66050744 298.26861725 4.66050744 298.26861725 6.44445825 298.27449536 C8.35153955 298.27319564 8.35153955 298.27319564 10.29714775 298.27186966 C11.66875852 298.27445517 13.04036854 298.27746884 14.41197753 298.28087306 C18.17584318 298.28892438 21.93968974 298.29073159 25.70356297 298.29147053 C29.7650416 298.29332431 33.8265104 298.30087323 37.88798332 298.30760574 C46.76611413 298.32117579 55.64424042 298.32721157 64.52237988 298.3316164 C70.06739777 298.33438078 75.61241393 298.33861846 81.15743065 298.34312057 C96.51463143 298.35531095 111.87183082 298.36561108 127.22903633 298.36899567 C128.21152453 298.36921523 129.19401273 298.3694348 130.2062733 298.36966102 C131.68349503 298.36998843 131.68349503 298.36998843 133.19055963 298.37032247 C135.18611097 298.37076593 137.18166232 298.37121249 139.17721367 298.37166214 C140.66200158 298.37199428 140.66200158 298.37199428 142.1767852 298.37233314 C158.21635449 298.37628125 174.25587835 298.39373671 190.29543009 298.41702166 C206.76899092 298.44074338 223.24252895 298.45319787 239.71610713 298.45436358 C248.96302754 298.45527982 258.20988874 298.46101937 267.45679283 298.4791832 C275.33040033 298.49459517 283.20393031 298.49969813 291.07755002 298.49144509 C295.09296737 298.48754263 299.10822864 298.48844844 303.12362671 298.50250244 C306.80387603 298.51526539 310.48385238 298.51402305 314.16410145 298.50191173 C316.11689738 298.49903803 318.06969813 298.51087228 320.02245641 298.52333379 C330.27050982 298.46591654 338.7253285 297.28090493 346.30953789 290.03377151 C351.79362363 283.86575822 353.11567732 278.1146991 353.17794609 270.02717972 C353.18451729 269.31928802 353.19108849 268.61139633 353.19785881 267.88205338 C353.21753101 265.54460404 353.22924222 263.20721885 353.23922539 260.86970901 C353.24330091 260.06820105 353.24737644 259.26669308 353.25157547 258.44089699 C353.27241265 254.19654857 353.2867232 249.95223223 353.29611015 245.70784378 C353.30715574 241.34118733 353.34154065 236.97504309 353.38128185 232.60856724 C353.40752765 229.23604817 353.41580912 225.86364956 353.41939163 222.49103737 C353.42423887 220.88240166 353.4357993 219.27377065 353.45442963 217.66523552 C353.56558345 207.43024372 353.0029998 199.27549608 346.68844414 190.81892776 C340.96444935 185.09493297 335.22595935 183.01258594 327.22677994 182.99441338 C326.04062824 182.98933883 324.85447654 182.98426429 323.63238084 182.97903597 C322.32793099 182.97853822 321.02348113 182.97804046 319.67950249 182.97752762 C318.28074383 182.97351189 316.88198633 182.96907349 315.48323023 182.96424806 C311.63503949 182.95228903 307.78686129 182.94663567 303.93865561 182.94206691 C299.78988496 182.93610831 295.64112926 182.92449914 291.4923687 182.9137764 C281.47091846 182.8892589 271.44946328 182.87462651 261.42799228 182.86171633 C258.59737089 182.85800402 255.76674999 182.85403082 252.93612909 182.84996367 C235.35710927 182.82472755 217.77808866 182.80267518 200.19905472 182.79023552 C196.12764673 182.78730584 192.05623878 182.78434417 187.98483086 182.78133011 C186.46694499 182.78021103 186.46694499 182.78021103 184.91839476 182.77906935 C168.52624056 182.766416 152.13419483 182.73319271 135.74209134 182.69152828 C118.911511 182.64910011 102.08098618 182.6255395 85.2503525 182.62031496 C75.80102674 182.61690193 66.35187053 182.60515937 56.90259743 182.57221222 C48.85507054 182.54419848 40.80774797 182.53321821 32.76017611 182.54440768 C28.65555604 182.54959088 24.55136375 182.54672989 20.44680595 182.52194214 C16.68490897 182.49941378 12.92374614 182.50021657 9.16183598 182.51914601 C7.16517778 182.52325941 5.16851489 182.50282685 3.17196786 182.48135912 C-7.08281017 182.57156804 -14.99263991 184.9924811 -21.74514961 192.99470901 Z M156.00094414 365.13142776 C156.00094414 391.86142776 156.00094414 418.59142776 156.00094414 446.13142776 C178.55561592 446.21885479 178.55561592 446.21885479 201.11031914 446.27791214 C210.31024006 446.29570169 219.51007845 446.31659644 228.70992851 446.35774612 C235.41062563 446.38770308 242.11125569 446.40701568 248.81201792 446.41369325 C252.35810494 446.41759489 255.90400017 446.42672684 259.45002556 446.44861794 C263.41429986 446.47289121 267.37838869 446.47339372 271.34274101 446.47200394 C272.51087334 446.48278976 273.67900566 446.49357559 274.88253593 446.50468826 C283.43017912 446.47228925 290.68049788 445.45187402 297.00094414 439.13142776 C300.51055186 434.2199654 303.08998689 429.97549278 303.19381523 423.81868362 C303.20987816 422.9502533 303.22594109 422.08182297 303.24249077 421.18707657 C303.2872402 417.20084469 303.32804379 413.21477665 303.35104179 409.22835159 C303.36754547 407.13448809 303.39476091 405.04067961 303.43307304 402.94710159 C303.48825676 399.91319708 303.50978332 396.88061252 303.52438164 393.84627151 C303.5583857 392.46132744 303.5583857 392.46132744 303.59307671 391.04840469 C303.57110409 384.18304952 301.88554028 378.83548538 298.00094414 373.13142776 C292.587992 367.97846794 287.09541955 364.8761318 279.50233269 364.89091873 C278.41003349 364.8881694 277.3177343 364.88542007 276.19233513 364.88258743 C275.00406624 364.88977798 273.81579735 364.89696854 272.59152031 364.90437698 C271.33257957 364.90408493 270.07363884 364.90379288 268.77654839 364.90349197 C265.33268201 364.90291904 261.88895546 364.91466368 258.44512153 364.92863989 C254.84299351 364.94115716 251.24086215 364.94231853 247.63871574 364.9446907 C240.8212777 364.95090255 234.00390393 364.96730935 227.18649417 364.98738968 C217.97149344 365.01394182 208.75647508 365.02472372 199.54144573 365.03639412 C185.02789707 365.05519017 170.51448404 365.09503778 156.00094414 365.13142776 Z M106.00094414 381.13142776 C106.00094414 397.30142776 106.00094414 413.47142776 106.00094414 430.13142776 C116.56094414 430.13142776 127.12094414 430.13142776 138.00094414 430.13142776 C138.00094414 413.96142776 138.00094414 397.79142776 138.00094414 381.13142776 C127.44094414 381.13142776 116.88094414 381.13142776 106.00094414 381.13142776 Z M321.00094414 398.13142776 C321.00094414 403.08142776 321.00094414 408.03142776 321.00094414 413.13142776 C331.56094414 413.13142776 342.12094414 413.13142776 353.00094414 413.13142776 C353.00094414 408.18142776 353.00094414 403.23142776 353.00094414 398.13142776 C342.44094414 398.13142776 331.88094414 398.13142776 321.00094414 398.13142776 Z " fill="#556FE9" transform="translate(42.99905586242676,23.868572235107422)"/>
<path d="M0 0 C70.95 0 141.9 0 215 0 C215 27.39 215 54.78 215 83 C144.05 83 73.1 83 0 83 C0 55.61 0 28.22 0 0 Z M17 17 C17 22.28 17 27.56 17 33 C22.28 33 27.56 33 33 33 C33 27.72 33 22.44 33 17 C27.72 17 22.44 17 17 17 Z M50 17 C50 22.28 50 27.56 50 33 C55.28 33 60.56 33 66 33 C66 27.72 66 22.44 66 17 C60.72 17 55.44 17 50 17 Z M83 17 C83 22.28 83 27.56 83 33 C88.28 33 93.56 33 99 33 C99 27.72 99 22.44 99 17 C93.72 17 88.44 17 83 17 Z M116 17 C116 33.17 116 49.34 116 66 C143.06 66 170.12 66 198 66 C198 49.83 198 33.66 198 17 C170.94 17 143.88 17 116 17 Z M17 50 C17 55.28 17 60.56 17 66 C22.28 66 27.56 66 33 66 C33 60.72 33 55.44 33 50 C27.72 50 22.44 50 17 50 Z M50 50 C50 55.28 50 60.56 50 66 C55.28 66 60.56 66 66 66 C66 60.72 66 55.44 66 50 C60.72 50 55.44 50 50 50 Z M83 50 C83 55.28 83 60.56 83 66 C88.28 66 93.56 66 99 66 C99 60.72 99 55.44 99 50 C93.72 50 88.44 50 83 50 Z " fill="#576DE9" transform="translate(99,223)"/>
<path d="M0 0 C0.79339783 0.00141495 1.58679565 0.0028299 2.40423584 0.00428772 C4.93098772 0.0098721 7.45765004 0.02242171 9.984375 0.03515625 C11.70051955 0.04017327 13.41666549 0.04473582 15.1328125 0.04882812 C19.33339535 0.05898427 23.53378527 0.07856266 27.734375 0.09765625 C27.734375 6.03765625 27.734375 11.97765625 27.734375 18.09765625 C16.844375 18.09765625 5.954375 18.09765625 -5.265625 18.09765625 C-5.265625 45.15765625 -5.265625 72.21765625 -5.265625 100.09765625 C-10.875625 100.09765625 -16.485625 100.09765625 -22.265625 100.09765625 C-22.35603244 88.59713444 -22.4294025 77.09684907 -22.47287369 65.59605217 C-22.4937388 60.25563213 -22.52203712 54.91546805 -22.56738281 49.57519531 C-22.61087846 44.42047742 -22.6347702 39.26600557 -22.64513397 34.11111832 C-22.65251863 32.14553073 -22.6669392 30.17995644 -22.68854523 28.21447372 C-22.71762853 25.45893112 -22.72157893 22.70440213 -22.71972656 19.94873047 C-22.73410767 19.1380864 -22.74848877 18.32744232 -22.76330566 17.49223328 C-22.7251052 12.23242827 -21.74330658 9.27151315 -18.265625 5.09765625 C-12.12590839 0.36495803 -7.56075747 -0.05089029 0 0 Z " fill="#229CD9" transform="translate(55.265625,56.90234375)"/>
<path d="M0 0 C5.4769253 4.90908354 9.50547571 9.7366801 10.37109375 17.19921875 C10.52359158 25.20983989 9.97345982 31.49624485 5 38 C-2.12223601 44.89248646 -8.78172411 46.46962514 -18.546875 46.31640625 C-25.74116872 45.6572006 -30.33649371 42.44075734 -35 37 C-40.2091823 29.90972409 -40.93261588 23.70441491 -40 15 C-37.59624042 7.28209928 -33.18101388 1.83876385 -26.125 -2.02734375 C-17.4548942 -5.82051504 -8.02479625 -4.91420747 0 0 Z M-20.375 15.6875 C-22.23110923 18.32888621 -23 19.75925076 -23 23 C-21.0410092 26.4478238 -19.80820311 27.74743653 -16 28.9375 C-12.8530634 29.00306118 -11.49869682 28.87402261 -9 27 C-7.07800886 24.43734514 -6.98971364 23.16801051 -7.1875 19.9375 C-8.1588816 16.24798251 -8.1588816 16.24798251 -11 14 C-14.9418958 13.49830417 -17.08888261 13.35262712 -20.375 15.6875 Z " fill="#576DE9" transform="translate(370,243)"/>
<path d="M0 0 C6.48370125 3.65395028 11.19946396 8.70892722 13.42578125 15.92578125 C14.99724803 23.8712348 14.24259393 31.18204107 9.84375 38.0390625 C6.15124096 42.73695767 1.86767101 46.86946959 -4.15625 48.0390625 C-12.06627873 48.83363649 -19.47074568 49.19245405 -26.2890625 44.6640625 C-31.77714982 39.88781914 -35.73884024 34.10152728 -36.4921875 26.76953125 C-36.58587626 18.27196075 -36.25639338 12.43270855 -30.35546875 6.109375 C-21.75627669 -1.93880087 -11.11564735 -4.8744847 0 0 Z M-17.65625 18.1640625 C-19.3923514 20.95112677 -19.3923514 20.95112677 -19.15625 24.1015625 C-17.98981051 27.52797851 -17.19199477 29.04186199 -14.15625 31.0390625 C-10.62688701 30.97714385 -8.20716096 30.77470017 -5.28125 28.7265625 C-3.90588149 26.66350974 -3.2991004 25.53894452 -3.15625 23.0390625 C-4.75139784 18.75295003 -4.75139784 18.75295003 -8.15625 16.0390625 C-13.36754821 15.45904164 -13.36754821 15.45904164 -17.65625 18.1640625 Z " fill="#576DE9" transform="translate(69.15625,240.9609375)"/>
<path d="M0 0 C16.5 0 33 0 50 0 C50 5.61 50 11.22 50 17 C33.5 17 17 17 0 17 C0 11.39 0 5.78 0 0 Z " fill="#576DE9" transform="translate(231,256)"/>
<path d="M0 0 C5.61 0 11.22 0 17 0 C17 5.94 17 11.88 17 18 C11.39 18 5.78 18 0 18 C0 12.06 0 6.12 0 0 Z " fill="#18A5D6" transform="translate(99,57)"/>
</svg>
